<svg id="svg" class="path" style="background-color: rgb(255, 255, 255);" title="background" version="1.1" xmlns="http://www.w3.org/2000/svg"><path fill="#f5f5f5" stroke="#f5f5f5" d="M -560 1302 L -560 0 C -549.9 0, -469.1 13, -459 13 C -448.4 13, -363.6 -19, -353 -19 C -345.5 -19, -285.5 -20, -278 -20 C -269.4 -20, -200.6 -19, -192 -19 C -185 -19, -129 -16, -122 -16 C -111.3 -16, -25.7 18, -15 18 C -8.4 18, 44.4 -14, 51 -14 C 60.4 -14, 135.6 -21, 145 -21 C 153.8 -21, 224.2 17, 233 17 C 245 17, 341 -12, 353 -12 C 360.7 -12, 422.3 -15, 430 -15 C 441.1 -15, 529.9 15, 541 15 C 550.6 15, 627.4 -19, 637 -19 C 646.9 -19, 726.1 -23, 736 -23 C 744.3 -23, 810.7 12, 819 12 C 828.8 12, 907.2 -15, 917 -15 C 924.8 -15, 987.2 -21, 995 -21 C 1001.8 -21, 1056.2 -18, 1063 -18 C 1071.5 -18, 1139.5 17, 1148 17 C 1156.9 17, 1228.1 15, 1237 15 C 1247.5 15, 1331.5 14, 1342 14 C 1353 14, 1441 16, 1452 16 C 1458.9 16, 1514.1 20, 1521 20 C 1528.6 20, 1589.4 -16, 1597 -16 C 1607.8 -16, 1694.2 -14, 1705 -14 L 2182 0 L 2182 1302 Z"></path><path fill="#ebebeb" stroke="#ebebeb" d="M -560 1302 L -540 26 C -533.6 26, -482.4 46, -476 46 C -465.9 46, -385.1 5, -375 5 C -367.4 5, -306.6 50, -299 50 C -287.9 50, -199.1 3, -188 3 C -181.4 3, -128.6 11, -122 11 C -113.5 11, -45.5 7, -37 7 C -24.8 7, 72.8 39, 85 39 C 92.9 39, 156.1 39, 164 39 C 172.5 39, 240.5 39, 249 39 C 255.7 39, 309.3 2, 316 2 C 325.3 2, 399.7 7, 409 7 C 416.1 7, 472.9 43, 480 43 C 488.8 43, 559.2 44, 568 44 C 575.7 44, 637.3 12, 645 12 C 653.8 12, 724.2 10, 733 10 C 742 10, 814 4, 823 4 C 832.2 4, 905.8 14, 915 14 C 924.2 14, 997.8 10, 1007 10 C 1018.3 10, 1108.7 39, 1120 39 C 1128.6 39, 1197.4 5, 1206 5 C 1214.3 5, 1280.7 6, 1289 6 C 1300.4 6, 1391.6 41, 1403 41 C 1412.6 41, 1489.4 9, 1499 9 C 1511 9, 1607 2, 1619 2 C 1630.8 2, 1725.2 4, 1737 4 L 2182 26 L 2182 1302 Z"></path><path fill="#e1e1e1" stroke="#e1e1e1" d="M -560 1302 L -520 53 C -512.8 53, -455.2 38, -448 38 C -436.3 38, -342.7 72, -331 72 C -320 72, -232 73, -221 73 C -214.1 73, -158.9 38, -152 38 C -142.9 38, -70.1 69, -61 69 C -53.1 69, 10.1 38, 18 38 C 30 38, 126 39, 138 39 C 144.7 39, 198.3 75, 205 75 C 214.8 75, 293.2 33, 303 33 C 309.7 33, 363.3 33, 370 33 C 381.6 33, 474.4 37, 486 37 C 496.6 37, 581.4 65, 592 65 C 600 65, 664 29, 672 29 C 683.1 29, 771.9 67, 783 67 C 789.6 67, 842.4 31, 849 31 C 856.4 31, 915.6 72, 923 72 C 930 72, 986 32, 993 32 C 1003.1 32, 1083.9 72, 1094 72 C 1100.9 72, 1156.1 38, 1163 38 C 1174.9 38, 1270.1 32, 1282 32 C 1289.7 32, 1351.3 70, 1359 70 C 1366.6 70, 1427.4 77, 1435 77 C 1441.2 77, 1490.8 30, 1497 30 C 1505.4 30, 1572.6 39, 1581 39 C 1589.9 39, 1661.1 33, 1670 33 L 2182 53 L 2182 1302 Z"></path><path fill="#d8d8d8" stroke="#d8d8d8" d="M -560 1302 L -500 79 C -491.6 79, -424.4 100, -416 100 C -404.1 100, -308.9 100, -297 100 C -285.5 100, -193.5 58, -182 58 C -175.1 58, -119.9 99, -113 99 C -104.6 99, -37.4 64, -29 64 C -21.5 64, 38.5 100, 46 100 C 52.4 100, 103.6 56, 110 56 C 121.9 56, 217.1 93, 229 93 C 239 93, 319 103, 329 103 C 335.4 103, 386.6 55, 393 55 C 400.7 55, 462.3 102, 470 102 C 480.4 102, 563.6 62, 574 62 C 584.6 62, 669.4 92, 680 92 C 689 92, 761 99, 770 99 C 778 99, 842 96, 850 96 C 860.1 96, 940.9 100, 951 100 C 957.9 100, 1013.1 61, 1020 61 C 1030.5 61, 1114.5 64, 1125 64 C 1133.6 64, 1202.4 103, 1211 103 C 1217.9 103, 1273.1 65, 1280 65 C 1290.4 65, 1373.6 58, 1384 58 C 1395.4 58, 1486.6 96, 1498 96 C 1505.1 96, 1561.9 101, 1569 101 C 1575.4 101, 1626.6 94, 1633 94 L 2182 79 L 2182 1302 Z"></path><path fill="#cecece" stroke="#cecece" d="M -560 1302 L -480 106 C -471.2 106, -400.8 85, -392 85 C -384.6 85, -325.4 119, -318 119 C -311.7 119, -261.3 126, -255 126 C -247.6 126, -188.4 86, -181 86 C -172.6 86, -105.4 122, -97 122 C -90.2 122, -35.8 90, -29 90 C -17.5 90, 74.5 125, 86 125 C 93.6 125, 154.4 130, 162 130 C 169.8 130, 232.2 118, 240 118 C 250.2 118, 331.8 87, 342 87 C 353.6 87, 446.4 84, 458 84 C 468.6 84, 553.4 84, 564 84 C 575.9 84, 671.1 125, 683 125 C 691.6 125, 760.4 82, 769 82 C 777.6 82, 846.4 126, 855 126 C 866 126, 954 127, 965 127 C 973.5 127, 1041.5 125, 1050 125 C 1057.1 125, 1113.9 86, 1121 86 C 1128.3 86, 1186.7 85, 1194 85 C 1205.6 85, 1298.4 123, 1310 123 C 1319.2 123, 1392.8 130, 1402 130 C 1409.6 130, 1470.4 93, 1478 93 C 1486.4 93, 1553.6 119, 1562 119 C 1569.1 119, 1625.9 86, 1633 86 L 2182 106 L 2182 1302 Z"></path><path fill="#c4c4c4" stroke="#c4c4c4" d="M -560 1302 L -460 132 C -449.4 132, -364.6 149, -354 149 C -343.6 149, -260.4 113, -250 113 C -240.4 113, -163.6 156, -154 156 C -146.3 156, -84.7 153, -77 153 C -69.7 153, -11.3 110, -4 110 C 4.699999999999999 110, 74.3 145, 83 145 C 89.3 145, 139.7 118, 146 118 C 152.4 118, 203.6 156, 210 156 C 221.8 156, 316.2 146, 328 146 C 334.5 146, 386.5 155, 393 155 C 399.6 155, 452.4 109, 459 109 C 467.6 109, 536.4 109, 545 109 C 553.2 109, 618.8 149, 627 149 C 636.2 149, 709.8 153, 719 153 C 726.1 153, 782.9 115, 790 115 C 800.9 115, 888.1 145, 899 145 C 908.3 145, 982.7 113, 992 113 C 1001 113, 1073 111, 1082 111 C 1094.2 111, 1191.8 155, 1204 155 C 1214.7 155, 1300.3 153, 1311 153 C 1322.8 153, 1417.2 111, 1429 111 C 1435.5 111, 1487.5 156, 1494 156 C 1504.8 156, 1591.2 114, 1602 114 C 1613.2 114, 1702.8 147, 1714 147 L 2182 132 L 2182 1302 Z"></path><path fill="#bbbbbb" stroke="#bbbbbb" d="M -560 1302 L -440 159 C -433.6 159, -382.4 176, -376 176 C -368.7 176, -310.3 135, -303 135 C -293.7 135, -219.3 183, -210 183 C -197.9 183, -101.1 145, -89 145 C -80.4 145, -11.6 176, -3 176 C 4.6 176, 65.4 143, 73 143 C 79.5 143, 131.5 174, 138 174 C 148.1 174, 228.9 176, 239 176 C 245.4 176, 296.6 139, 303 139 C 312 139, 384 183, 393 183 C 402 183, 474 146, 483 146 C 491.8 146, 562.2 140, 571 140 C 577.4 140, 628.6 142, 635 142 C 647 142, 743 183, 755 183 C 766.1 183, 854.9 183, 866 183 C 875.3 183, 949.7 140, 959 140 C 970.8 140, 1065.2 172, 1077 172 C 1087.9 172, 1175.1 144, 1186 144 C 1192.1 144, 1240.9 135, 1247 135 C 1255 135, 1319 144, 1327 144 C 1336.8 144, 1415.2 182, 1425 182 C 1434.3 182, 1508.7 135, 1518 135 C 1526 135, 1590 145, 1598 145 C 1605.1 145, 1661.9 143, 1669 143 L 2182 159 L 2182 1302 Z"></path><path fill="#b2b2b2" stroke="#b2b2b2" d="M -560 1302 L -420 185 C -408.6 185, -317.4 168, -306 168 C -299.6 168, -248.4 208, -242 208 C -230.2 208, -135.8 168, -124 168 C -116.4 168, -55.6 200, -48 200 C -41.6 200, 9.6 202, 16 202 C 26 202, 106 165, 116 165 C 127.4 165, 218.6 204, 230 204 C 236.1 204, 284.9 162, 291 162 C 299.7 162, 369.3 201, 378 201 C 386.9 201, 458.1 162, 467 162 C 478.8 162, 573.2 173, 585 173 C 596.5 173, 688.5 206, 700 206 C 707.5 206, 767.5 204, 775 204 C 787 204, 883 209, 895 209 C 903.4 209, 970.6 197, 979 197 C 991.1 197, 1087.9 165, 1100 165 C 1112.1 165, 1208.9 197, 1221 197 C 1228 197, 1284 171, 1291 171 C 1300.1 171, 1372.9 200, 1382 200 C 1391.7 200, 1469.3 208, 1479 208 C 1485.3 208, 1535.7 207, 1542 207 C 1552.2 207, 1633.8 203, 1644 203 L 2182 185 L 2182 1302 Z"></path><path fill="#a8a8a8" stroke="#a8a8a8" d="M -560 1302 L -400 212 C -389.2 212, -302.8 228, -292 228 C -284.9 228, -228.1 198, -221 198 C -212.6 198, -145.4 190, -137 190 C -129.4 190, -68.6 200, -61 200 C -53.6 200, 5.6 233, 13 233 C 25.2 233, 122.8 231, 135 231 C 146.1 231, 234.9 194, 246 194 C 258 194, 354 225, 366 225 C 373.7 225, 435.3 228, 443 228 C 449.6 228, 502.4 197, 509 197 C 518.5 197, 594.5 230, 604 230 C 615.1 230, 703.9 228, 715 228 C 721.9 228, 777.1 232, 784 232 C 796 232, 892 193, 904 193 C 910.1 193, 958.9 192, 965 192 C 974.8 192, 1053.2 229, 1063 229 C 1075.2 229, 1172.8 190, 1185 190 C 1193.3 190, 1259.7 233, 1268 233 C 1278.3 233, 1360.7 230, 1371 230 C 1380.6 230, 1457.4 200, 1467 200 C 1478.9 200, 1574.1 194, 1586 194 C 1593.4 194, 1652.6 191, 1660 191 L 2182 212 L 2182 1302 Z"></path><path fill="#9f9f9f" stroke="#9f9f9f" d="M -560 1302 L -380 238 C -373.8 238, -324.2 219, -318 219 C -307.7 219, -225.3 226, -215 226 C -206.6 226, -139.4 261, -131 261 C -119.6 261, -28.4 217, -17 217 C -4.800000000000001 217, 92.8 254, 105 254 C 115.4 254, 198.6 221, 209 221 C 218.3 221, 292.7 260, 302 260 C 314.2 260, 411.8 254, 424 254 C 431.3 254, 489.7 222, 497 222 C 508.9 222, 604.1 218, 616 218 C 623.6 218, 684.4 219, 692 219 C 700.8 219, 771.2 226, 780 226 C 786.4 226, 837.6 255, 844 255 C 851.8 255, 914.2 257, 922 257 C 930.8 257, 1001.2 252, 1010 252 C 1021.8 252, 1116.2 251, 1128 251 C 1135.3 251, 1193.7 262, 1201 262 C 1211.8 262, 1298.2 214, 1309 214 C 1320 214, 1408 215, 1419 215 C 1430.8 215, 1525.2 220, 1537 220 C 1545.7 220, 1615.3 216, 1624 216 L 2182 238 L 2182 1302 Z"></path><path fill="#969696" stroke="#969696" d="M -560 1302 L -360 265 C -347.8 265, -250.2 245, -238 245 C -231 245, -175 248, -168 248 C -159.2 248, -88.8 253, -80 253 C -73 253, -17 282, -10 282 C -0.9000000000000004 282, 71.9 249, 81 249 C 92.6 249, 185.4 250, 197 250 C 204.7 250, 266.3 250, 274 250 C 285.1 250, 373.9 248, 385 248 C 395.1 248, 475.9 280, 486 280 C 492.4 280, 543.6 287, 550 287 C 562.1 287, 658.9 251, 671 251 C 677.2 251, 726.8 248, 733 248 C 744.1 248, 832.9 278, 844 278 C 854.9 278, 942.1 247, 953 247 C 960.3 247, 1018.7 284, 1026 284 C 1036.8 284, 1123.2 289, 1134 289 C 1145.6 289, 1238.4 249, 1250 249 C 1261.6 249, 1354.4 247, 1366 247 C 1373.7 247, 1435.3 285, 1443 285 C 1450.5 285, 1510.5 285, 1518 285 C 1526.8 285, 1597.2 252, 1606 252 C 1617.5 252, 1709.5 244, 1721 244 L 2182 265 L 2182 1302 Z"></path><path fill="#8d8d8d" stroke="#8d8d8d" d="M -560 1302 L -340 291 C -332.5 291, -272.5 279, -265 279 C -256.5 279, -188.5 306, -180 306 C -171.9 306, -107.1 273, -99 273 C -89.5 273, -13.5 268, -4 268 C 4.4 268, 71.6 307, 80 307 C 91.9 307, 187.1 267, 199 267 C 211 267, 307 269, 319 269 C 329.7 269, 415.3 308, 426 308 C 434.9 308, 506.1 313, 515 313 C 525.8 313, 612.2 277, 623 277 C 632.9 277, 712.1 313, 722 313 C 731.5 313, 807.5 306, 817 306 C 826.6 306, 903.4 314, 913 314 C 922.8 314, 1001.2 268, 1011 268 C 1022.7 268, 1116.3 277, 1128 277 C 1137.9 277, 1217.1 309, 1227 309 C 1235.9 309, 1307.1 311, 1316 311 C 1327.4 311, 1418.6 308, 1430 308 C 1441.1 308, 1529.9 268, 1541 268 C 1548 268, 1604 311, 1611 311 C 1622.9 311, 1718.1 315, 1730 315 L 2182 291 L 2182 1302 Z"></path><path fill="#848484" stroke="#848484" d="M -560 1302 L -320 318 C -312.7 318, -254.3 303, -247 303 C -238.6 303, -171.4 295, -163 295 C -156.9 295, -108.1 294, -102 294 C -90.9 294, -2.0999999999999996 298, 9 298 C 16.5 298, 76.5 306, 84 306 C 94.7 306, 180.3 305, 191 305 C 200 305, 272 340, 281 340 C 287.3 340, 337.7 333, 344 333 C 355.5 333, 447.5 330, 459 330 C 465.7 330, 519.3 295, 526 295 C 536 295, 616 334, 626 334 C 632.3 334, 682.7 340, 689 340 C 696.5 340, 756.5 332, 764 332 C 773.5 332, 849.5 334, 859 334 C 870.7 334, 964.3 300, 976 300 C 986.2 300, 1067.8 341, 1078 341 C 1089.9 341, 1185.1 299, 1197 299 C 1203.8 299, 1258.2 334, 1265 334 C 1273.2 334, 1338.8 295, 1347 295 C 1357.7 295, 1443.3 341, 1454 341 C 1460.7 341, 1514.3 334, 1521 334 C 1530.9 334, 1610.1 302, 1620 302 C 1631.2 302, 1720.8 298, 1732 298 L 2182 318 L 2182 1302 Z"></path><path fill="#7b7b7b" stroke="#7b7b7b" d="M -560 1302 L -300 344 C -289.9 344, -209.1 326, -199 326 C -191 326, -127 325, -119 325 C -109.7 325, -35.3 357, -26 357 C -15.4 357, 69.4 324, 80 324 C 86.6 324, 139.4 361, 146 361 C 152.3 361, 202.7 367, 209 367 C 216.9 367, 280.1 362, 288 362 C 300 362, 396 321, 408 321 C 415.8 321, 478.2 358, 486 358 C 497.2 358, 586.8 321, 598 321 C 606.5 321, 674.5 368, 683 368 C 693.4 368, 776.6 331, 787 331 C 798.5 331, 890.5 358, 902 358 C 908.6 358, 961.4 321, 968 321 C 979.8 321, 1074.2 356, 1086 356 C 1095.2 356, 1168.8 367, 1178 367 C 1184.8 367, 1239.2 329, 1246 329 C 1255.7 329, 1333.3 330, 1343 330 C 1353.9 330, 1441.1 332, 1452 332 C 1460.8 332, 1531.2 366, 1540 366 C 1548.5 366, 1616.5 322, 1625 322 L 2182 344 L 2182 1302 Z"></path><path fill="#737373" stroke="#737373" d="M -560 1302 L -280 371 C -272 371, -208 351, -200 351 C -193.1 351, -137.9 352, -131 352 C -120.5 352, -36.5 394, -26 394 C -17.5 394, 50.5 383, 59 383 C 67.2 383, 132.8 357, 141 357 C 148.1 357, 204.9 393, 212 393 C 219.7 393, 281.3 349, 289 349 C 296.1 349, 352.9 351, 360 351 C 371.7 351, 465.3 389, 477 389 C 483.8 389, 538.2 347, 545 347 C 552.7 347, 614.3 352, 622 352 C 629.7 352, 691.3 389, 699 389 C 707.5 389, 775.5 384, 784 384 C 794.1 384, 874.9 356, 885 356 C 897.2 356, 994.8 386, 1007 386 C 1013.2 386, 1062.8 350, 1069 350 C 1080.8 350, 1175.2 394, 1187 394 C 1195.1 394, 1259.9 394, 1268 394 C 1275.2 394, 1332.8 359, 1340 359 C 1351 359, 1439 390, 1450 390 C 1456.2 390, 1505.8 394, 1512 394 C 1519.4 394, 1578.6 355, 1586 355 C 1597.8 355, 1692.2 387, 1704 387 L 2182 371 L 2182 1302 Z"></path><path fill="#6a6a6a" stroke="#6a6a6a" d="M -560 1302 L -260 397 C -253.3 397, -199.7 376, -193 376 C -181.5 376, -89.5 379, -78 379 C -67 379, 21 377, 32 377 C 40.2 377, 105.8 373, 114 373 C 122 373, 186 419, 194 419 C 200.8 419, 255.2 375, 262 375 C 268.3 375, 318.7 377, 325 377 C 334.5 377, 410.5 379, 420 379 C 430.2 379, 511.8 375, 522 375 C 532 375, 612 382, 622 382 C 629 382, 685 410, 692 410 C 703.9 410, 799.1 375, 811 375 C 822.1 375, 910.9 410, 922 410 C 928.6 410, 981.4 409, 988 409 C 997.5 409, 1073.5 414, 1083 414 C 1094.5 414, 1186.5 420, 1198 420 C 1205.7 420, 1267.3 414, 1275 414 C 1285.1 414, 1365.9 414, 1376 414 C 1382.6 414, 1435.4 419, 1442 419 C 1448.7 419, 1502.3 377, 1509 377 C 1520.4 377, 1611.6 419, 1623 419 L 2182 397 L 2182 1302 Z"></path><path fill="#626262" stroke="#626262" d="M -560 1302 L -240 424 C -232.5 424, -172.5 407, -165 407 C -154.6 407, -71.4 447, -61 447 C -49.1 447, 46.1 437, 58 437 C 67.9 437, 147.1 403, 157 403 C 166 403, 238 403, 247 403 C 255.6 403, 324.4 404, 333 404 C 342.4 404, 417.6 403, 427 403 C 438.5 403, 530.5 405, 542 405 C 554.1 405, 650.9 438, 663 438 C 671.1 438, 735.9 408, 744 408 C 755.6 408, 848.4 410, 860 410 C 866.1 410, 914.9 445, 921 445 C 930.4 445, 1005.6 440, 1015 440 C 1026.5 440, 1118.5 443, 1130 443 C 1140.8 443, 1227.2 404, 1238 404 C 1245.6 404, 1306.4 443, 1314 443 C 1323.8 443, 1402.2 412, 1412 412 C 1423 412, 1511 406, 1522 406 C 1531.7 406, 1609.3 410, 1619 410 C 1625.5 410, 1677.5 439, 1684 439 L 2182 424 L 2182 1302 Z"></path><path fill="#595959" stroke="#595959" d="M -560 1302 L -220 450 C -210.5 450, -134.5 470, -125 470 C -113.3 470, -19.7 431, -8 431 C -1.4000000000000004 431, 51.4 467, 58 467 C 68.6 467, 153.4 467, 164 467 C 172.1 467, 236.9 437, 245 437 C 255.5 437, 339.5 466, 350 466 C 360.9 466, 448.1 464, 459 464 C 469.4 464, 552.6 464, 563 464 C 569.1 464, 617.9 427, 624 427 C 632.4 427, 699.6 426, 708 426 C 718.6 426, 803.4 431, 814 431 C 821.9 431, 885.1 434, 893 434 C 903.4 434, 986.6 469, 997 469 C 1004.3 469, 1062.7 464, 1070 464 C 1080.9 464, 1168.1 430, 1179 430 C 1186.2 430, 1243.8 429, 1251 429 C 1263 429, 1359 469, 1371 469 C 1382.7 469, 1476.3 463, 1488 463 C 1497.5 463, 1573.5 433, 1583 433 C 1593.4 433, 1676.6 432, 1687 432 L 2182 450 L 2182 1302 Z"></path><path fill="#515151" stroke="#515151" d="M -560 1302 L -200 477 C -190 477, -110 496, -100 496 C -90.3 496, -12.7 492, -3 492 C 3.8 492, 58.2 464, 65 464 C 72.7 464, 134.3 497, 142 497 C 154 497, 250 462, 262 462 C 270.4 462, 337.6 497, 346 497 C 352.4 497, 403.6 491, 410 491 C 421 491, 509 465, 520 465 C 531.8 465, 626.2 492, 638 492 C 647.1 492, 719.9 491, 729 491 C 736.9 491, 800.1 491, 808 491 C 820.2 491, 917.8 490, 930 490 C 938.3 490, 1004.7 493, 1013 493 C 1023.8 493, 1110.2 459, 1121 459 C 1129.1 459, 1193.9 495, 1202 495 C 1211.3 495, 1285.7 461, 1295 461 C 1306.6 461, 1399.4 460, 1411 460 C 1420.9 460, 1500.1 455, 1510 455 C 1517.4 455, 1576.6 464, 1584 464 C 1595.2 464, 1684.8 458, 1696 458 L 2182 477 L 2182 1302 Z"></path><path fill="#494949" stroke="#494949" d="M -560 1302 L -180 503 C -172 503, -108 483, -100 483 C -88.6 483, 2.5999999999999996 485, 14 485 C 23.6 485, 100.4 522, 110 522 C 121 522, 209 488, 220 488 C 229 488, 301 520, 310 520 C 321.5 520, 413.5 485, 425 485 C 432.2 485, 489.8 487, 497 487 C 504.3 487, 562.7 521, 570 521 C 580 521, 660 483, 670 483 C 677.2 483, 734.8 486, 742 486 C 753.1 486, 841.9 516, 853 516 C 864.9 516, 960.1 523, 972 523 C 980.9 523, 1052.1 515, 1061 515 C 1067.2 515, 1116.8 515, 1123 515 C 1130.4 515, 1189.6 521, 1197 521 C 1207.9 521, 1295.1 523, 1306 523 C 1313.6 523, 1374.4 525, 1382 525 C 1390 525, 1454 523, 1462 523 C 1472.2 523, 1553.8 486, 1564 486 C 1574.4 486, 1657.6 518, 1668 518 L 2182 503 L 2182 1302 Z"></path><path fill="#414141" stroke="#414141" d="M -560 1302 L -160 530 C -150.4 530, -73.6 551, -64 551 C -54.7 551, 19.7 549, 29 549 C 35.5 549, 87.5 513, 94 513 C 103.9 513, 183.1 545, 193 545 C 204.8 545, 299.2 550, 311 550 C 322.7 550, 416.3 551, 428 551 C 439.6 551, 532.4 516, 544 516 C 556.2 516, 653.8 544, 666 544 C 678.1 544, 774.9 506, 787 506 C 799.1 506, 895.9 548, 908 548 C 915.8 548, 978.2 517, 986 517 C 994.2 517, 1059.8 542, 1068 542 C 1078.6 542, 1163.4 510, 1174 510 C 1181 510, 1237 509, 1244 509 C 1254.6 509, 1339.4 553, 1350 553 C 1358 553, 1422 549, 1430 549 C 1440.1 549, 1520.9 512, 1531 512 C 1541.5 512, 1625.5 550, 1636 550 L 2182 530 L 2182 1302 Z"></path><path fill="#393939" stroke="#393939" d="M -560 1302 L -140 556 C -132.8 556, -75.2 540, -68 540 C -58.7 540, 15.7 573, 25 573 C 35.3 573, 117.7 568, 128 568 C 138.3 568, 220.7 539, 231 539 C 240.2 539, 313.8 577, 323 577 C 334.3 577, 424.7 574, 436 574 C 447.8 574, 542.2 571, 554 571 C 561.2 571, 618.8 537, 626 537 C 632.9 537, 688.1 535, 695 535 C 702.4 535, 761.6 538, 769 538 C 777.1 538, 841.9 576, 850 576 C 856.6 576, 909.4 544, 916 544 C 926.5 544, 1010.5 538, 1021 538 C 1029.8 538, 1100.2 573, 1109 573 C 1118.6 573, 1195.4 533, 1205 533 C 1213.4 533, 1280.6 539, 1289 539 C 1298.6 539, 1375.4 543, 1385 543 C 1394.7 543, 1472.3 543, 1482 543 C 1493 543, 1581 536, 1592 536 C 1599.1 536, 1655.9 536, 1663 536 L 2182 556 L 2182 1302 Z"></path><path fill="#323232" stroke="#323232" d="M -560 1302 L -120 583 C -111.1 583, -39.9 566, -31 566 C -22.3 566, 47.3 564, 56 564 C 66 564, 146 598, 156 598 C 166.7 598, 252.3 561, 263 561 C 273.2 561, 354.8 560, 365 560 C 374.2 560, 447.8 600, 457 600 C 466.2 600, 539.8 599, 549 599 C 560 599, 648 562, 659 562 C 670.6 562, 763.4 605, 775 605 C 781.6 605, 834.4 567, 841 567 C 850.6 567, 927.4 559, 937 559 C 948 559, 1036 597, 1047 597 C 1053.9 597, 1109.1 566, 1116 566 C 1125.9 566, 1205.1 564, 1215 564 C 1222.6 564, 1283.4 568, 1291 568 C 1299 568, 1363 562, 1371 562 C 1381.9 562, 1469.1 605, 1480 605 C 1487.5 605, 1547.5 595, 1555 595 C 1564 595, 1636 562, 1645 562 L 2182 583 L 2182 1302 Z"></path><path fill="#2a2a2a" stroke="#2a2a2a" d="M -560 1302 L -100 609 C -88.2 609, 6.199999999999999 591, 18 591 C 25.2 591, 82.8 592, 90 592 C 101.8 592, 196.2 628, 208 628 C 216.9 628, 288.1 631, 297 631 C 307.1 631, 387.9 596, 398 596 C 406.6 596, 475.4 592, 484 592 C 493.4 592, 568.6 621, 578 621 C 586.8 621, 657.2 626, 666 626 C 675.5 626, 751.5 590, 761 590 C 768.4 590, 827.6 585, 835 585 C 842.4 585, 901.6 592, 909 592 C 917.2 592, 982.8 590, 991 590 C 998.8 590, 1061.2 622, 1069 622 C 1079.6 622, 1164.4 629, 1175 629 C 1184.3 629, 1258.7 593, 1268 593 C 1280.1 593, 1376.9 585, 1389 585 C 1397.6 585, 1466.4 592, 1475 592 C 1483.9 592, 1555.1 593, 1564 593 C 1573.7 593, 1651.3 589, 1661 589 L 2182 609 L 2182 1302 Z"></path><path fill="#232323" stroke="#232323" d="M -560 1302 L -80 636 C -70 636, 10 657, 20 657 C 27.7 657, 89.3 652, 97 652 C 108.5 652, 200.5 659, 212 659 C 218.4 659, 269.6 623, 276 623 C 282.7 623, 336.3 656, 343 656 C 353.9 656, 441.1 654, 452 654 C 460.4 654, 527.6 650, 536 650 C 543.6 650, 604.4 650, 612 650 C 620.1 650, 684.9 620, 693 620 C 703.6 620, 788.4 618, 799 618 C 809.7 618, 895.3 616, 906 616 C 915.6 616, 992.4 655, 1002 655 C 1011.2 655, 1084.8 617, 1094 617 C 1105.1 617, 1193.9 619, 1205 619 C 1215.3 619, 1297.7 654, 1308 654 C 1316.8 654, 1387.2 615, 1396 615 C 1404.6 615, 1473.4 652, 1482 652 C 1491.6 652, 1568.4 613, 1578 613 C 1584.6 613, 1637.4 616, 1644 616 L 2182 636 L 2182 1302 Z"></path><path fill="#1c1c1c" stroke="#1c1c1c" d="M -560 1302 L -60 662 C -50 662, 30 647, 40 647 C 46.1 647, 94.9 640, 101 640 C 107.3 640, 157.7 681, 164 681 C 173 681, 245 638, 254 638 C 262.6 638, 331.4 642, 340 642 C 347.9 642, 411.1 685, 419 685 C 430.8 685, 525.2 674, 537 674 C 545.8 674, 616.2 638, 625 638 C 633.8 638, 704.2 683, 713 683 C 722.1 683, 794.9 676, 804 676 C 813.2 676, 886.8 638, 896 638 C 903.2 638, 960.8 676, 968 676 C 976 676, 1040 638, 1048 638 C 1054.6 638, 1107.4 681, 1114 681 C 1124.4 681, 1207.6 684, 1218 684 C 1225.7 684, 1287.3 685, 1295 685 C 1305.4 685, 1388.6 683, 1399 683 C 1408.7 683, 1486.3 684, 1496 684 C 1507.2 684, 1596.8 685, 1608 685 C 1617.6 685, 1694.4 675, 1704 675 L 2182 662 L 2182 1302 Z"></path><path fill="#151515" stroke="#151515" d="M -560 1302 L -40 689 C -28.9 689, 59.9 709, 71 709 C 77.6 709, 130.4 670, 137 670 C 145.3 670, 211.7 668, 220 668 C 226.3 668, 276.7 675, 283 675 C 294.1 675, 382.9 665, 394 665 C 403.6 665, 480.4 704, 490 704 C 496.7 704, 550.3 709, 557 709 C 563.9 709, 619.1 674, 626 674 C 632.9 674, 688.1 675, 695 675 C 702.9 675, 766.1 707, 774 707 C 785.5 707, 877.5 665, 889 665 C 896.8 665, 959.2 713, 967 713 C 973.2 713, 1022.8 707, 1029 707 C 1041.1 707, 1137.9 670, 1150 670 C 1161.2 670, 1250.8 667, 1262 667 C 1270.2 667, 1335.8 710, 1344 710 C 1353 710, 1425 709, 1434 709 C 1442.7 709, 1512.3 703, 1521 703 C 1527.5 703, 1579.5 670, 1586 670 C 1597.9 670, 1693.1 665, 1705 665 L 2182 689 L 2182 1302 Z"></path><path fill="#0c0c0c" stroke="#0c0c0c" d="M -560 1302 L -20 715 C -9.7 715, 72.7 694, 83 694 C 93.7 694, 179.3 698, 190 698 C 196.4 698, 247.6 728, 254 728 C 262.5 728, 330.5 694, 339 694 C 348 694, 420 692, 429 692 C 436.7 692, 498.3 700, 506 700 C 517.2 700, 606.8 730, 618 730 C 626 730, 690 727, 698 727 C 704.3 727, 754.7 737, 761 737 C 769.8 737, 840.2 702, 849 702 C 859.7 702, 945.3 693, 956 693 C 964.2 693, 1029.8 737, 1038 737 C 1044.2 737, 1093.8 698, 1100 698 C 1106.8 698, 1161.2 693, 1168 693 C 1178.7 693, 1264.3 734, 1275 734 C 1286.6 734, 1379.4 734, 1391 734 C 1403 734, 1499 698, 1511 698 C 1520.1 698, 1592.9 700, 1602 700 C 1610.8 700, 1681.2 735, 1690 735 L 2182 715 L 2182 1302 Z"></path><path fill="#000000" stroke="#000000" d="M -560 1302 L 0 742 C 7.2 742, 64.8 722, 72 722 C 80.2 722, 145.8 718, 154 718 C 162 718, 226 759, 234 759 C 244.8 759, 331.2 719, 342 719 C 353 719, 441 760, 452 760 C 461.8 760, 540.2 765, 550 765 C 561.7 765, 655.3 721, 667 721 C 674 721, 730 727, 737 727 C 747.4 727, 830.6 718, 841 718 C 852.4 718, 943.6 718, 955 718 C 963.8 718, 1034.2 766, 1043 766 C 1051 766, 1115 724, 1123 724 C 1132.4 724, 1207.6 763, 1217 763 C 1226.1 763, 1298.9 761, 1308 761 C 1319 761, 1407 719, 1418 719 C 1427.7 719, 1505.3 756, 1515 756 C 1525.1 756, 1605.9 765, 1616 765 C 1626.9 765, 1714.1 729, 1725 729 L 2182 742 L 2182 1302 Z"></path></svg>